<svg xmlns="http://www.w3.org/2000/svg" version="1.1" xmlns:xlink="http://www.w3.org/1999/xlink" xmlns:svgjs="http://svgjs.dev/svgjs" width="1920" height="1080" preserveAspectRatio="none" viewBox="0 0 1920 1080"><g mask="url(&quot;#SvgjsMask1007&quot;)" fill="none"><rect width="1920" height="1080" x="0" y="0" fill="rgba(174, 63, 45, 1)"></rect><path d="M 0,231 C 128,193.2 384,48.8 640,42 C 896,35.2 1024,182.8 1280,197 C 1536,211.2 1792,129.8 1920,113L1920 1080L0 1080z" fill="rgba(114, 64, 46, 1)"></path><path d="M 0,529 C 128,481.6 384,301.6 640,292 C 896,282.4 1024,479 1280,481 C 1536,483 1792,337.8 1920,302L1920 1080L0 1080z" fill="rgba(114, 64, 46, 1)"></path><path d="M 0,753 C 64,722.4 192,610.6 320,600 C 448,589.4 512,698.4 640,700 C 768,701.6 832,601.2 960,608 C 1088,614.8 1152,731.8 1280,734 C 1408,736.2 1472,622 1600,619 C 1728,616 1856,699 1920,719L1920 1080L0 1080z" fill="rgba(54, 64, 46, 1)"></path><path d="M 0,826 C 64,874.4 192,1057.6 320,1068 C 448,1078.4 512,902 640,878 C 768,854 832,961.4 960,948 C 1088,934.6 1152,803.4 1280,811 C 1408,818.6 1472,970.6 1600,986 C 1728,1001.4 1856,907.6 1920,888L1920 1080L0 1080z" fill="rgba(54, 64, 46, 1)"></path></g><defs><mask id="SvgjsMask1007"><rect width="1920" height="1080" fill="#ffffff"></rect></mask></defs></svg>